{"title":"Deadliest Catch - Second Season - 3 Disc Set - DVD-R [RLG]","uid":13546197,"size":23848155370,"categoryP":"video","categoryS":"tv_shows","magnet":"?xt=urn:btih:12b9021636bede97b11080aa90e7e704427d5832&amp;dn=Deadliest+Catch+-+Second+Season+-+3+Disc+Set+-+DVD-R+%5BRLG%5D&amp;tr=udp%3A%2F%2Ftracker.leechers-paradise.org%3A6969&amp;tr=udp%3A%2F%2Fzer0day.ch%3A1337&amp;tr=udp%3A%2F%2Fopen.demonii.com%3A1337&amp;tr=udp%3A%2F%2Ftracker.coppersurfer.tk%3A6969&amp;tr=udp%3A%2F%2Fexodus.desync.com%3A6969","seeders":0,"leechers":1,"uploader":"RedLegsGreaves","files":105,"time":1455519250,"description":"[IMG]http://lookpic.com/O/i2/41/cbdZoLCS.jpeg[/IMG]\r\n\r\n\r\n[b]INFO[/b]\r\n \nhttp://www.imdb.com/title/tt0446809/\r\n\r\nVideo\r\nID                          : 224 (0xE0)\r\nFormat                      : MPEG Video\r\nFormat version              : Version 2\r\nFormat profile              :   \r\nFormat settings, BVOP       : Yes\r\nFormat settings, Matrix     : Custom\r\nFormat settings, GOP        : Variable\r\nFormat settings, picture st : Frame\r\nDuration                    : 22mn 50s\r\nBit rate mode               : Variable\r\nBit rate                    : 5 917 Kbps\r\nMaximum bit rate            : 9 800 Kbps\r\nWidth                       : 720 pixels\r\nHeight                      : 480 pixels\r\nDisplay aspect ratio        : 4:3\r\nFrame rate                  : 29.970 (30000/1001) fps\r\nStandard                    : NTSC\r\nColor space                 : YUV\r\nChroma subsampling          : 4:2:0\r\nBit depth                   : 8 bits\r\nScan type                   : Interlaced\r\nScan order                  : Top Field First\r\nCompression mode            : Lossy\r\nBits/(Pixel*Frame)          : 0.571\r\nTime code of first frame    : 01:42:43;00\r\nTime code source            : Group of pictures header\r\nGOP, Open/Closed            : Open\r\nGOP, Open/Closed of first f : Closed\r\nStream size                 : 967 MiB (94%)\r\n\r\nAudio\r\nID                          : 189 (0xBD)-128 (0x80)\r\nFormat                      : AC-3\r\nFormat/Info                 : Audio Coding 3\r\nMode extension              : CM (complete main)\r\nFormat settings, Endianness : Big\r\nMuxing mode                 : DVD-Video\r\nDuration                    : 22mn 50s\r\nBit rate mode               : Constant\r\nBit rate                    : 224 Kbps\r\nChannel(s)                  : 2 channels\r\nChannel positions           : Front: L R\r\nSampling rate               : 48.0 KHz\r\nFrame rate                  : 31.250 fps (1536 spf)\r\nCompression mode            : Lossy\r\nStream size                 : 36.6 MiB (4%)\r\n\r\n[b]Plot[/b]\r\n\r\nA documentary series chronicling the real-life high-sea adventures of the Alaskan crab fishermen. This is the most deadly profession in the world.\r\n\r\n[color=red][b]For Newer Users[/b][/color]\r\nSimply Drag downloaded folder to your Media Player. This is a NTSC DVD\r\nThis is ripped so you would have best quality, menu, bonus/special feature, language options etc\r\nNote: DVDs may not have have all* featues \r\n\r\n[b]Screenshots[/b]\r\n\r\n[IMG]http://lookpic.com/O/i2/1813/118hWHss.jpeg[/IMG]\r\n[IMG]http://lookpic.com/O/i2/1039/Bu5e8YpQ.jpeg[/IMG]\r\n[IMG]http://lookpic.com/O/i2/1501/S5zS92b3.jpeg[/IMG]\r\n[IMG]http://lookpic.com/O/i2/1088/kwQ2hzUt.jpeg[/IMG][IMG]http://lookpic.com/O/i2/97/QVzmlThq.jpeg[/IMG]\r\n\r\n[img]https://i.imgur.com/fLhfPWl.jpg[/img]","torrent":{"xt":"urn:btih:12b9021636bede97b11080aa90e7e704427d5832","amp;dn":"Deadliest+Catch+-+Second+Season+-+3+Disc+Set+-+DVD-R+%5BRLG%5D","amp;tr":["udp%3A%2F%2Ftracker.leechers-paradise.org%3A6969","udp%3A%2F%2Fzer0day.ch%3A1337","udp%3A%2F%2Fopen.demonii.com%3A1337","udp%3A%2F%2Ftracker.coppersurfer.tk%3A6969","udp%3A%2F%2Fexodus.desync.com%3A6969"],"infoHash":"12b9021636bede97b11080aa90e7e704427d5832","infoHashBuffer":{"type":"Buffer","data":[18,185,2,22,54,190,222,151,177,16,128,170,144,231,231,4,66,125,88,50]},"announce":[],"urlList":[]}}